<!-- Generated by IcoMoon.io -->
<svg version="1.1" xmlns="http://www.w3.org/2000/svg" width="32" height="32" viewBox="0 0 32 32">
<title>envelope</title>
<path fill="#757575" d="M29 5h-26c-1.654 0-3 1.218-3 2.714v16.28c0 1.496 1.346 2.712 3 2.712h26c1.654 0 3-1.216 3-2.714v-16.28c0-1.492-1.346-2.712-3-2.712zM29 6.808c0.136 0 0.266 0.026 0.384 0.070l-13.384 10.492-13.384-10.492c0.114-0.044 0.246-0.070 0.384-0.070 0 0 0 0 0 0h26zM29 24.898h-26c-0.552 0-1-0.406-1-0.906v-15.202l13.344 10.46c0.19 0.148 0.422 0.22 0.656 0.22 0.003 0 0.006 0 0.009 0 0.245 0 0.47-0.083 0.65-0.222l-0.002 0.002 13.344-10.46v15.202c0 0.5-0.448 0.906-1 0.906z"></path>
</svg>
