<!-- Generated by IcoMoon.io -->
<svg version="1.1" xmlns="http://www.w3.org/2000/svg" width="63" height="32" viewBox="0 0 63 32">
<title>logo6</title>
<path fill="#afb1b8" d="M31.815 14.712c-0.256-0.354-0.41-0.798-0.41-1.277 0-0.050 0.002-0.099 0.005-0.148l-0 0.007v-2.055c0-0.629 0.134-1.108 0.403-1.436s0.731-0.491 1.386-0.489c0.615 0 1.052 0.139 1.311 0.418 0.282 0.356 0.419 0.791 0.387 1.229v0.483h-1.1v-0.489c0.004-0.16-0.007-0.32-0.032-0.479-0.018-0.114-0.075-0.213-0.157-0.284l-0.001-0.001c-0.098-0.070-0.221-0.113-0.353-0.113-0.016 0-0.032 0.001-0.048 0.002l0.002-0c-0.014-0.001-0.030-0.002-0.046-0.002-0.14 0-0.269 0.045-0.375 0.12l0.002-0.001c-0.092 0.079-0.157 0.187-0.182 0.309l-0.001 0.004c-0.027 0.14-0.043 0.3-0.043 0.465 0 0.015 0 0.031 0 0.046l-0-0.002v2.494c-0.018 0.24 0.031 0.481 0.141 0.7 0.056 0.074 0.131 0.132 0.217 0.168l0.003 0.001c0.065 0.028 0.14 0.044 0.219 0.044 0.023 0 0.045-0.001 0.068-0.004l-0.003 0c0.014 0.001 0.029 0.002 0.045 0.002 0.13 0 0.25-0.043 0.346-0.116l-0.001 0.001c0.086-0.077 0.145-0.182 0.163-0.3l0-0.003c0.026-0.166 0.038-0.333 0.035-0.5v-0.506h1.1v0.462c0.003 0.037 0.004 0.081 0.004 0.125 0 0.439-0.144 0.845-0.388 1.172l0.004-0.005c-0.252 0.306-0.683 0.458-1.317 0.458s-1.112-0.164-1.384-0.501zM36.399 14.733c-0.278-0.32-0.417-0.786-0.417-1.403v-2.162c0-0.61 0.139-1.072 0.417-1.385s0.742-0.469 1.395-0.469c0.647 0 1.109 0.156 1.388 0.469 0.277 0.313 0.42 0.775 0.42 1.386v2.162c0 0.61-0.142 1.078-0.425 1.4s-0.742 0.483-1.383 0.483c-0.64 0-1.114-0.164-1.395-0.481zM38.306 14.214c0.1-0.199 0.145-0.42 0.132-0.639v-2.646c0.001-0.021 0.002-0.046 0.002-0.071 0-0.203-0.049-0.394-0.135-0.563l0.003 0.007c-0.057-0.076-0.133-0.136-0.221-0.172l-0.004-0.001c-0.063-0.026-0.137-0.041-0.214-0.041-0.027 0-0.053 0.002-0.079 0.005l0.003-0c-0.022-0.003-0.048-0.005-0.075-0.005-0.078 0-0.153 0.015-0.221 0.043l0.004-0.001c-0.092 0.037-0.168 0.096-0.225 0.171l-0.001 0.001c-0.084 0.161-0.134 0.351-0.134 0.553 0 0.026 0.001 0.052 0.002 0.078l-0-0.004v2.659c-0.014 0.22 0.031 0.439 0.132 0.64 0.064 0.067 0.142 0.12 0.228 0.156l0.005 0.002c0.084 0.036 0.181 0.057 0.283 0.057s0.199-0.021 0.288-0.058l-0.005 0.002c0.091-0.038 0.168-0.092 0.232-0.158l0-0v-0.012zM40.924 9.377h1.185l0.891 3.988 0.912-3.988h1.153l0.116 5.756h-0.851l-0.091-4.001-0.88 4.001h-0.683l-0.912-4.016-0.085 4.016h-0.862l0.107-5.756zM46.511 9.377h1.846c1.064 0 1.596 0.545 1.596 1.634 0 1.044-0.56 1.564-1.68 1.564h-0.629v2.559h-1.139l0.007-5.756zM48.088 11.838c0.112 0.013 0.227 0.004 0.335-0.028s0.208-0.084 0.292-0.154c0.131-0.195 0.188-0.423 0.164-0.65 0.001-0.019 0.001-0.042 0.001-0.064 0-0.163-0.020-0.321-0.059-0.472l0.003 0.013c-0.018-0.061-0.047-0.114-0.084-0.159l0.001 0.001c-0.040-0.047-0.087-0.086-0.141-0.115l-0.003-0.001c-0.132-0.059-0.287-0.094-0.449-0.094-0.021 0-0.042 0.001-0.062 0.002l0.003-0h-0.442v1.721h0.442zM51.595 9.377h1.224l1.256 5.756h-1.062l-0.248-1.328h-1.092l-0.256 1.328h-1.077l1.256-5.756zM52.641 13.139l-0.427-2.416-0.426 2.416h0.853zM55.089 9.377h0.798l1.527 3.284v-3.284h0.946v5.756h-0.759l-1.536-3.428v3.428h-0.978l0.002-5.756zM60.575 12.939l-1.27-3.553h1.069l0.775 2.283 0.727-2.283h1.045l-1.253 3.553v2.195h-1.094v-2.195zM33.575 17.651v0.302h-0.93v2.339h-0.39v-2.34h-0.934v-0.301h2.254zM36.49 20.291h-0.301c-0.002 0-0.005 0-0.008 0-0.029 0-0.055-0.009-0.077-0.025l0 0c-0.022-0.015-0.039-0.035-0.049-0.060l-0-0.001-0.269-0.627h-1.29l-0.269 0.627c-0.008 0.028-0.023 0.052-0.041 0.071l0-0c-0.022 0.016-0.049 0.025-0.078 0.025-0.002 0-0.005-0-0.007-0h-0.3l1.14-2.64h0.396l1.153 2.63zM34.603 19.311h1.076l-0.455-1.075c-0.029-0.067-0.058-0.15-0.082-0.235l-0.003-0.014-0.043 0.14-0.041 0.11-0.452 1.073zM38.455 20.032c0.071 0.003 0.142 0.003 0.213 0 0.062-0.006 0.123-0.017 0.183-0.032 0.056-0.012 0.111-0.028 0.164-0.048 0.050-0.019 0.1-0.043 0.153-0.065v-0.594h-0.456c-0.002 0-0.004 0-0.005 0-0.031 0-0.058-0.017-0.073-0.042l-0-0c-0.004-0.008-0.006-0.017-0.006-0.026 0-0 0-0 0-0v0-0.203h0.885v1.011c-0.217 0.145-0.478 0.242-0.759 0.27l-0.007 0.001c-0.098 0.010-0.211 0.016-0.326 0.016-0.002 0-0.005 0-0.008 0h0c-0.004 0-0.009 0-0.014 0-0.201 0-0.394-0.036-0.572-0.102l0.011 0.004c-0.176-0.066-0.327-0.159-0.456-0.277l0.001 0.001c-0.123-0.116-0.222-0.255-0.291-0.41l-0.003-0.008c-0.066-0.156-0.105-0.338-0.105-0.529 0-0.006 0-0.013 0-0.019v0.001c-0-0.005-0-0.011-0-0.018 0-0.192 0.038-0.376 0.106-0.544l-0.003 0.010c0.065-0.156 0.166-0.299 0.294-0.418 0.128-0.116 0.279-0.209 0.446-0.271l0.009-0.003c0.196-0.068 0.403-0.101 0.611-0.099 0.107 0 0.212 0.008 0.317 0.023 0.092 0.014 0.183 0.036 0.27 0.067 0.080 0.027 0.156 0.063 0.228 0.105 0.070 0.041 0.137 0.087 0.199 0.138l-0.11 0.164c-0.009 0.015-0.022 0.027-0.036 0.035l-0.001 0c-0.015 0.009-0.033 0.014-0.052 0.014h-0c-0.026-0.001-0.050-0.009-0.071-0.022l0.001 0c-0.045-0.023-0.082-0.044-0.117-0.066l0.006 0.003c-0.043-0.025-0.094-0.049-0.146-0.069l-0.007-0.002c-0.058-0.022-0.129-0.042-0.201-0.057l-0.009-0.001c-0.083-0.015-0.179-0.023-0.277-0.023-0.004 0-0.008 0-0.013 0h0.001c-0.004-0-0.009-0-0.013-0-0.153 0-0.299 0.027-0.435 0.076l0.009-0.003c-0.13 0.048-0.242 0.119-0.335 0.209l0-0c-0.095 0.095-0.167 0.206-0.212 0.329-0.048 0.131-0.076 0.282-0.076 0.44s0.028 0.309 0.079 0.449l-0.003-0.009c0.050 0.124 0.127 0.238 0.228 0.333 0.094 0.090 0.207 0.161 0.333 0.209 0.145 0.046 0.299 0.064 0.452 0.052zM42.087 19.989h1.244v0.302h-1.625v-2.641h0.39l-0.009 2.34zM44.627 20.291h-0.39v-2.641h0.39v2.64zM46.076 17.663c0.023 0.012 0.043 0.028 0.059 0.048l1.666 1.99c-0.001-0.014-0.002-0.030-0.002-0.047s0.001-0.033 0.002-0.049l-0 0.002v-1.968h0.34v2.651h-0.196c-0.004 0-0.009 0.001-0.014 0.001-0.025 0-0.050-0.005-0.072-0.015l0.001 0c-0.024-0.014-0.044-0.030-0.061-0.050l-0-0-1.664-1.988v2.053h-0.326v-2.64h0.203c0.023 0 0.045 0.005 0.065 0.013l-0.001-0zM51.009 17.651v0.291h-1.381v0.872h1.119v0.28h-1.119v0.9h1.381v0.292h-1.782v-2.635h1.782zM10.171 1.346l17.305 4.507v15.792l-17.304-4.505v-15.794zM9.062 0v17.908l19.522 5.086v-17.906l-19.522-5.088z"></path>
<path fill="#afb1b8" d="M19.524 31.307l-19.524-5.090v-17.906l19.524 5.088v17.908z"></path>
<path fill="#afb1b8" d="M9.385 1.143l17.079 4.45-7.263 6.664-17.081-4.452 7.265-6.663zM9.062 0l-9.062 8.311 19.524 5.087 9.060-8.311-19.522-5.088zM20.624 30.299l7.96-7.303-7.96-2.076v9.38z"></path>
</svg>
