<!-- Generated by IcoMoon.io -->
<svg version="1.1" xmlns="http://www.w3.org/2000/svg" width="30" height="32" viewBox="0 0 30 32">
<title>logo1</title>
<path fill="#afb1b8" d="M4 0l4.872 4.468h13.589v12.465l4.872 4.468v-21.401h-23.333z"></path>
<path fill="#afb1b8" d="M0 4.28v20.79h22.667v-8.264l-13.651-12.521-9.015-0.005zM18.349 22.029h-14.762v-13.982h1.043v13.035h13.719v0.947zM6.527 28.991l0.545-1.123h0.456l-0.795 1.497v0.872h-0.413v-0.872l-0.796-1.497h0.457l0.545 1.123zM8.867 29.686h-0.917l-0.192 0.551h-0.428l0.895-2.369h0.37l0.897 2.369h-0.43l-0.193-0.551zM8.065 29.354h0.687l-0.343-0.983-0.343 0.983zM10.491 29.598c0-0.109 0.030-0.21 0.089-0.301s0.177-0.201 0.353-0.327c-0.072-0.086-0.137-0.184-0.189-0.288l-0.004-0.009c-0.033-0.069-0.053-0.15-0.054-0.235v-0c0-0.185 0.056-0.332 0.169-0.439 0.113-0.109 0.265-0.163 0.455-0.163 0.173 0 0.313 0.051 0.423 0.153 0.111 0.1 0.167 0.226 0.167 0.375 0 0.001 0 0.002 0 0.003 0 0.1-0.028 0.193-0.077 0.273l0.001-0.002c-0.066 0.099-0.148 0.181-0.243 0.246l-0.003 0.002-0.161 0.117 0.458 0.541c0.066-0.13 0.099-0.275 0.099-0.435h0.343c0 0.292-0.068 0.531-0.205 0.718l0.348 0.411h-0.459l-0.133-0.157c-0.16 0.119-0.362 0.19-0.58 0.19-0.009 0-0.018-0-0.027-0l0.001 0c-0.234 0-0.422-0.062-0.563-0.185-0.129-0.114-0.21-0.281-0.21-0.466 0-0.007 0-0.015 0-0.022l-0 0.001zM11.275 29.955c0.133 0 0.258-0.045 0.374-0.133l-0.517-0.611-0.051 0.036c-0.13 0.099-0.195 0.211-0.195 0.338 0 0.11 0.035 0.199 0.106 0.267 0.069 0.064 0.162 0.104 0.265 0.104 0.007 0 0.013-0 0.020-0l-0.001 0zM11.057 28.428c0 0.091 0.056 0.205 0.168 0.343l0.18-0.124 0.051-0.040c0.062-0.054 0.101-0.133 0.101-0.221 0-0.003-0-0.006-0-0.009v0c0-0.001 0-0.002 0-0.003 0-0.062-0.027-0.117-0.070-0.155l-0-0c-0.044-0.041-0.103-0.067-0.169-0.067-0.003 0-0.006 0-0.009 0h0c-0.003-0-0.007-0-0.010-0-0.069 0-0.131 0.030-0.174 0.078l-0 0c-0.043 0.050-0.069 0.115-0.069 0.187 0 0.004 0 0.007 0 0.011l-0-0.001zM15.362 29.466c-0.024 0.253-0.117 0.451-0.28 0.593s-0.379 0.211-0.649 0.211c-0.006 0-0.012 0-0.019 0-0.178 0-0.344-0.050-0.485-0.136l0.004 0.002c-0.145-0.093-0.259-0.223-0.33-0.377l-0.002-0.006c-0.077-0.166-0.122-0.361-0.122-0.567 0-0.003 0-0.005 0-0.008v0-0.222c0-0.223 0.040-0.42 0.119-0.591 0.080-0.17 0.193-0.301 0.34-0.393 0.149-0.093 0.32-0.139 0.515-0.139 0.261 0 0.472 0.071 0.631 0.213s0.253 0.343 0.279 0.602h-0.41c-0.020-0.17-0.069-0.293-0.15-0.368-0.079-0.076-0.196-0.113-0.35-0.113-0.179 0-0.317 0.065-0.413 0.197-0.095 0.13-0.144 0.321-0.147 0.575v0.21c0 0.256 0.046 0.451 0.137 0.586s0.227 0.201 0.403 0.201c0.161 0 0.283-0.036 0.365-0.109s0.133-0.193 0.155-0.363h0.41zM17.623 29.115c0 0.232-0.040 0.436-0.12 0.612-0.081 0.175-0.196 0.309-0.345 0.403s-0.32 0.14-0.515 0.14c-0.192 0-0.363-0.047-0.514-0.14-0.152-0.098-0.271-0.235-0.346-0.396l-0.002-0.006c-0.078-0.17-0.123-0.369-0.123-0.578 0-0.008 0-0.015 0-0.023v0.001-0.133c0-0.231 0.040-0.435 0.122-0.613s0.198-0.312 0.347-0.405c0.15-0.094 0.321-0.141 0.514-0.141s0.365 0.047 0.513 0.14c0.149 0.092 0.265 0.225 0.347 0.4 0.081 0.173 0.123 0.376 0.123 0.607v0.132zM17.211 28.991c0-0.263-0.050-0.463-0.149-0.603-0.089-0.128-0.235-0.21-0.4-0.21-0.008 0-0.015 0-0.023 0.001l0.001-0c-0.005-0-0.011-0-0.017-0-0.165 0-0.312 0.083-0.4 0.209l-0.001 0.002c-0.1 0.139-0.151 0.335-0.153 0.591v0.137c0 0.26 0.051 0.461 0.152 0.604s0.243 0.213 0.423 0.213c0.183 0 0.323-0.070 0.42-0.209 0.099-0.139 0.148-0.342 0.148-0.609v-0.124z"></path>
</svg>
