<!-- Generated by IcoMoon.io -->
<svg version="1.1" xmlns="http://www.w3.org/2000/svg" width="32" height="32" viewBox="0 0 32 32">
<title>smartphone</title>
<path fill="#757575" d="M23.467 0h-14.933c-1.764 0-3.2 1.299-3.2 2.895v25.082c0 1.596 1.436 2.895 3.2 2.895h14.933c1.764 0 3.2-1.299 3.2-2.895v-25.082c0-1.596-1.436-2.895-3.2-2.895zM8.533 1.929h14.933c0.589 0 1.067 0.433 1.067 0.966v20.258h-17.067v-20.258c0-0.533 0.478-0.966 1.067-0.966zM23.467 28.941h-14.933c-0.589 0-1.067-0.431-1.067-0.964v-2.895h17.067v2.895c0 0.533-0.478 0.964-1.067 0.964z"></path>
<path fill="#757575" d="M10.355 26.33c0.192 0.166 0.313 0.41 0.313 0.683s-0.121 0.517-0.312 0.682l-0.001 0.001c-0.201 0.176-0.465 0.283-0.755 0.283s-0.555-0.107-0.756-0.285l0.001 0.001c-0.192-0.166-0.313-0.41-0.313-0.683s0.121-0.517 0.312-0.682l0.001-0.001c0.201-0.176 0.465-0.283 0.755-0.283s0.554 0.107 0.757 0.285l-0.001-0.001z"></path>
</svg>
